<?xml version="1.0" encoding="UTF-8"?>
<svg width="512" height="512" viewBox="0 0 512 512" fill="none" xmlns="http://www.w3.org/2000/svg">
  <defs>
    <!-- Çok duraklı degrade: turuncu → pembe → mor → mavi -->
    <linearGradient id="appromiserGrad" x1="0.22" y1="0.10" x2="0.88" y2="0.95">
      <stop offset="0%"   stop-color="#FF8F39"/>
      <stop offset="30%"  stop-color="#FF5C6C"/>
      <stop offset="63%"  stop-color="#C24EFF"/>
      <stop offset="100%" stop-color="#6061FF"/>
    </linearGradient>
  </defs>

  <!-- Dış “A” silueti + içteki check kesiti (fill-rule="evenodd") -->
  <path fill="url(#appromiserGrad)" fill-rule="evenodd" d="
    M130,420
      C118,420 111,410 115,398
      L228,102
      C238,75 255,64 272,64
      C289,64 306,75 316,102
      L427,398
      C431,410 424,420 412,420
      L358,420
      C347,420 339,414 335,404
      L308,338
      C302,323 292,315 276,315
      L236,315
      C220,315 210,323 204,338
      L177,404
      C173,414 165,420 154,420
      Z

    M210,270
      C206,266 206,259 211,255
      L229,241
      C233,238 238,238 242,242
      L256,256
      C259,259 263,259 266,256
      L296,226
      C301,221 309,222 313,228
      L321,239
      C325,244 324,251 319,255
      L268,304
      C264,308 257,308 253,304
      L210,270
      Z
  "/>
</svg>